<?xml version="1.0" encoding="utf-8"?>
<!-- Generator: Adobe Illustrator 22.1.0, SVG Export Plug-In . SVG Version: 6.00 Build 0)  -->
<svg version="1.1" id="Layer_1" xmlns="http://www.w3.org/2000/svg" xmlns:xlink="http://www.w3.org/1999/xlink" x="0px" y="0px"
	 viewBox="0 0 1080 1080" style="enable-background:new 0 0 1080 1080;" xml:space="preserve">
<style type="text/css">
	.st0{fill:#FFC800;}
</style>
<path class="st0" d="M620.1,404.4C620.1,404.4,620.1,404.4,620.1,404.4h-4.6l-52.7-0.7l0.1-4.1h-13.1l-0.4,14.9l-3.1-11.4h-10.5
	v19.2h-11.8l-3.5,252.4l13.6,6.6l23.2-1.7l2.3-113.9l7.7-2.7l1.1,2.6l-7.8,3.2l4.9,11.9l50.3-19.8l38.3-15.1l0.6-41.6l0.9-60.4
	l0.6-38.9l0-3.3h-35.7C620.2,402.1,620.2,403,620.1,404.4z M615.6,520.2l-46.2,18.9l1.7,7.1l-11.4,4.3l2.3-113.5
	c13.4,0.1,38.2,0,53.4-0.1c1.7,0,3.2,0,4.6,0c0,2.3,0,4.7,0,7c0.1,17.1,0.2,32.8,0.2,32.8l-1.3,42.1L615.6,520.2z"/>
<path class="st0" d="M400.6,555.6l15.7-6.6l0.6-37l-0.3,0.1l0.1-8.1l0.9-60.4l0.1-9.3l0.4-29.6l0-2.5l0-0.7h-35.7c0,0.1,0,0.1,0,0.2
	l-51-0.7v8l-5,0.4v-8.1h-12.1v13.7h-4v-8.1h-13l-0.3,12.7l0.6,258l10.9,0.3l0.3-8.7l5.3,0.9l0.3,5l10.6-0.6l-0.9-9.3l5.6-0.6
	l-0.9,10.3l14,0.3l-1.9-104.3l3,7.4l21.4-8.4l6.6,17.7l26.2,69.1l7.2-1.5l7.3,21.2l12.3-7l-3-9.6l2.6-1l2.9,7.9l12.1-4.5l-26.9-73.2
	L400.6,555.6z M340.2,547.2l-2.1-112.7c9.9,0.1,28.7,0,44,0c0,3.1,0,6.1,0,9.2c0.1,17.1,0.2,32.8,0.2,32.8l-1.5,51.1l-33.1,13.6
	l1.7,2.5L340.2,547.2z"/>
<path class="st0" d="M492.7,493.8l-7.3-1.1l0.6-22.4l-14,2.2l-0.6,10.1h-2.8v-8.4h-12.9l-3.4,204.2h40.3c0.6-3.9,0-75,0-75V493.8z"
	/>
<polygon class="st0" points="234.8,431.9 282.9,428.8 282.9,415.6 285.5,415.6 284.9,398.7 162.1,400.3 162.1,405.5 151.7,405.5 
	151.7,416.4 159.3,416.4 159.3,418.8 152,418.8 152,424.7 154.8,424.7 154.8,436.9 202.8,433.9 "/>
<polygon class="st0" points="234.8,431.9 237.3,667.7 224.9,667.7 224.9,658.9 223.2,658.9 223.2,674.7 208.6,674.7 208.6,658.4 
	200.7,658.4 202.8,433.9 "/>
<path class="st0" d="M487,413.1l0.6-9.7l-9.7,1.3l-2.8,5.9l0.3-6.3h-5.9v2.2c0,0-12.6-0.1-12.6-0.5l-0.7,49.8l20.8-0.2v2.2h17.8
	l-2.2-45.4L487,413.1z"/>
<polygon class="st0" points="785.5,424.4 792.4,422.4 792.9,411.1 779.9,411.9 780.1,398.9 681,402.8 681.3,485.8 693.2,485.8 
	693.5,498.5 706.6,499.1 706.6,491.7 709.7,491.7 710.2,498 722.4,497.7 722.5,439.2 748.8,439.2 748.8,471.3 685,576.1 685,676.9 
	788.1,676.9 788.1,603.6 783.8,603.6 783.8,560.2 772.8,560.2 772.8,599.3 770.2,599.3 770.2,559.6 766.2,559.6 766.2,567.3 
	753.4,567.3 753.4,641.1 725.6,641.1 725.6,583.2 787.2,481.8 787.2,438.3 795.5,438.3 795.8,426.7 785.3,426.4 "/>
<polygon class="st0" points="918,424.4 924.9,422.4 925.4,411.1 912.4,411.9 912.7,398.9 813.5,402.8 813.8,485.8 825.7,485.8 
	826,498.5 839.1,499.1 839.1,491.7 842.2,491.7 842.8,498 855,497.7 855,439.2 881.3,439.2 881.3,471.3 817.5,576.1 817.5,676.9 
	920.6,676.9 920.6,603.6 916.3,603.6 916.3,560.2 905.3,560.2 905.3,599.3 902.7,599.3 902.7,559.6 898.7,559.6 898.7,567.3 
	886,567.3 886,641.1 858.1,641.1 858.1,583.2 919.8,481.8 919.8,438.3 928,438.3 928.3,426.7 917.8,426.4 "/>
</svg>
