<svg id="Layer_1" data-name="Layer 1" xmlns="http://www.w3.org/2000/svg" viewBox="0 0 1920 208.3"><title>dateArtboard 1</title><path d="M1920,23.8V208.2H0V172.3c.1.1.3.1.4.2,9.4-2.8,12.5,2.6,20.3,3.6.1-.9.1-1.7-.7-1.8.6-1.6,1.6,1.3,2,1.8.6-.6,2.5-.2,2-1.8.8.7,1.2,1.7,3.4,1.2-1.1-2.6,1.4.2,2-3,1.3,1.7,3.4.5,4.7,1.2.1-1.3-.6-1.9-2-1.8,1-2,1.7,1.2,3.4.6-.4-.6-1.6-.6-1.3-1.8,4.2,2.3,13.1,3.8,16.9,3-.2-.7-1.2-1.5-1.3-.6-.2-2.9,7.2,2.5,9.5,1.2.9,3.8,11.1-.2,16.2-.6,1-.1,2,1.2,2,1.2.1,0,7.1-4.1,9.5-1.2-.6-2,9.1-.6,8.1.6,2.1.3,1.5-1.8,4.1-1.2-.6-.9-2.2-.9-3.4-1.2,6.1-2.4,10.6.4,14.9,2.4a1.656,1.656,0,0,0,1.3-1.8c1.5-.1.3,2.1.7,3,1.9-1.7,3.6-.9,4.7-2.4,4.9,3.4,11.9.5,14.2,1.8-.6-.9,2.4-1.2,1.3-1.8,3.1-1.4,2.8,1.5,6.8,1.2,1.5-.4-1.3-2-2-2.4-.2-1.5,4,2.6,6.8,2.4,1.6-.5-1.5-1.7-.7-3.6,3.7,2,1.4,2.3,4.1,4.2.9-.2.6-1.5.7-2.4,3.2,2.3,6.3,3.5,8.8.6.7,3.5,3-1,2.7,2.4,2-1.9,3.4-.2,4.7-2.4,2,.4-.6,1.3,0,2.4,2.6-2.3,7-1,7.4-5.3-.1,2.4,1.5,5.2,4.1,4.7,1.7-.1-.9-1,0-2.4,1.5.4,1.5,2.3,3.4,2.4,3.2-2.1,6.7-3.9,10.1-3,1.7-.4-1.3-1.6-.7-3,.4,1.1,3.4,2.2,2.7-.6,1.6-.2.7,1.7,2,1.8,1.2-.1,3.3-4,4.1-.6,1.3-.1.4-2,1.4-2.4,2.3.2-1,3.3.7,3,2.8.2.4-1.3.7-2.4.7,2.3,5.7-.8,4.1,1.8,2.1-.7,3.6-2.4,6.1-1.2-1.6-1.2-.7-.9-1.4-3,2.4.6,3.2-1.3,6.1.6,1.1-1.2-.1-.8,0-2.4,3-1.2,12.5,2.7,12.9-.6,3.1-.9,7.6,1.7,10.1-.6,2.4,2.4,5.8-.5,9.5,1.2.1-1-1.1-1.5,0-1.8,2.4.1.2.9,1.4,2.4,4.9-1,1.1.8,6.1.6-.1-.7-1.2-.5-2-.6,5.5-1.2,5.9.1,9.5.6,1.5.1.3-2.1.7-3,1.4-.8,9.3.8,6.8-1.2,1.4-1.9,7.1,3.2,7.4-1.2,1.6,2.1,4.7.4,3-1.2a19.426,19.426,0,0,0,12.6.6c-.4-.6-1.6-.6-1.4-1.8,1.5-1.3,3.8-.3,4.7.6.8-1.9-2.2-.5-1.4-2.4,2.6-.1,6.1.6,6.1-1.8,2,1.1,1.1,2.6,3.4,2.4,1.6-.4-2.3-1.1,0-2.4,1.7,3.9,10.7.4,14.9-1.8-3.2-3,4.4-3.1,8.1-3.6a1.952,1.952,0,0,0-1.3-1.2c1.7.2,4.3-.4,5.4,1.2,2.4-.2-1.2-2.6.7-2.4,1.8,1.9,6.2,3.4,5.4,4.2,2,.2,1.4-1.9,2-3,4.4,2.9,11.9-3.3,13.5-.6,1-.5,1-1.9,1.3-3,2.8-.3,3.8,1,6.1,1.2,3.4-4.1,10.6-.9,13.5-3.6-1.4-1.2-3.4-2-3.4-3,1.1-1.7,2.5,1.3,4.1,1.2a1.955,1.955,0,0,0-2-1.2c1.5-.9,3.8-1,6.1-1.2.1,1.5,3.1.8,1.3,2.4,1.2-.3,6.3-.2,3.4-1.2.5-1.4,3.2.3,3.4,1.2a2.693,2.693,0,0,0,1.4-2.4c2.2,1.3,4.2-1.1,6.1,0,.8.2,2.3-1.7.7-1.8.9-1.4,2.3,1.9,3.4,2.4,2.1-.1,1.8-2.3,4.7-1.8,0-.6-.8-.5-1.3-.6,2.3.1,4.9-2.8,6.8.6,2.1-.9-.9-2.3,2-4.2-2.4.3-2.2.7-4.1,0,6-1.8,10.7,3.5,14.9,3.6,1.1-.1.1-1.3-1.1-1.7,3.9.6,11.7,3.3,10.5-.7,5.2,1.7,8.4-1.1,14.9,1.8-.5-1.7,3.7-.2,5.4-1.2-2.8-1.1-.9-1.5,0-3.6.1,2.1,4.4-.1,6.8,0,5.6.2,11.8,2.3,16.2,1.2.9-.6-.3-1,1.4-1.8,6.3,3.2,10.1-1.6,14.2-2.4-.4.1,1.3,2,4.1.6,5-2.6,14.8-1.5,23-.6,2.3,0,5.1-2.6,7.4-.6-.8-1.9,3.1-.1,2-1.2,1.9-.6,6.3,2.5,6.8-.6,1.7,3.5,5.3,1.1,8.1,1.8-2.8-.7,1.6-2.1-1.1-2.4,4.7.2,11.8,1.7,16.6,2.9,1.9-1.6,4.7-2.3,4.7-4.2,1.4.2.2,2.6,1.4,3,1.8.7,2.9-1.8,2.7.6.7-.8,3.6-2.1,0-1.8,2-1.8,5.9.5,7.4-.6.2-.8-.2-1-.8-1.1,6,.8,9.4-3.4,19.7-2.4,1.1.1-.6,1.1.7,1.2,2.7.8,1.4-2,4-1.2-.6-1.7-1-.7-2.7-.6,2-3.7,8.2.5,12.2.6,2.9-1.1,1.9-2,3.4-4.1,5.5-.6,12.4.6,20.3,1.8.8.1,2.3-.7,2.7-.6,1.9.4,4.3,2.1,1.4,0,3.2,1.2,8.9,2.3,13.5,4.7,2.3-.5,3.6-2,6.2-2.3-.8-.2,2.1-3.7,2-3.6.4-.3,2,0,2,0a4.349,4.349,0,0,0,.7-.6l.6.6c1.2.7,6.7-1.4,4.1-2.4,8.7,1.4,13.9,0,23,3,.4-.9-2.6-1.4-.7-1.8,5,4.9,11.7-2.7,16.9,1.2.8-.1.6-1.1.7-1.8,1.4,2.5,3,1,6.1,1.8,1.4-.2-1-1.9-1.4-2.4,2.3-.4,4,2,6.8,2.4,4.6-2.3,9.6-1.7,15.5-1.8.2-.9.9-1.1,2-2.4,3.5,1.6,3.2-.7,4.7-1.2,8.9.9,29.9,2.4,38.5-3,.9.1,3.3,1.7,3.4.6,1,.3-.1.5,0,1.2,9.2-1.5,19.7,4.1,27,2.4-.7-.7-4.3-.9-4.7-.6a1.916,1.916,0,0,0-1.4-1.2c1.1-1.3,3.7.1,2-2.4,5.9,2.6,9.5-2.1,14.9.6,1.5.3,3.7-1.8,2-2.4,3-.8,7,2.6,10.1,3.6,1.2-.5.9-2.4,3.4-1.8a5.929,5.929,0,0,0-2-1.2c.5-.4,6.9,1.5,5.4,3,.9-.9,3.8-.9,4.7,0,1-2.3-3-.1-2-2.4.8.7,5.2,1.5,4.1-1.2,3.1,2,11.1,1.8,13.5,2.4,5,1.5,8.9-.3,14.2-3.6,0-.6-.8-.5-1.4-.6,6.1-1.8,7.2,2.1,14.2,1.2-.4-.8-1.4-1.1-2.7-1.2-1.2-1.4,4.1.3,4.7,1.2,1.2-1.2,2.4-1,1.4-3,1.4.2,1.3,1.6,2.7,1.8,1-.3-.3-.8,0-1.8,5.7-.2,20.3,3,18.9-3,6.8.2,10.4-2.4,15.5-3a1.278,1.278,0,0,1-1.2,1.1c3.8.3,7.4,3.9,12.7,4.2,5.8.4,14.1-5.1,17.6,1.2a4.312,4.312,0,0,1,2.7-.6c.5,1.1,2,.4.7,1.8,2.4.1,6.3-1.9,9.5-.6,1.9-4.3,11.6-.5,12.8-4.2,1.2,1.1,6.8,4.4,7.4.6.8,2.7,11.2.7,4.7-1.8,1.1-.4,4.6,2.3,6.1,3.6,2.3-.5.1-1.3,1.4-2.4,1.1,2.5,1.5-1.2,5.4,1.2-.3-1.3,3.1-1.7,3.4-4.2,3.3,2.3,3.6.7,8.1,1.8.9-2,8.6-5.8,12.2-2.4,7.9-4.7,18.6-5,27.7-3,4-.1,8.5-3.8,14.2-1.8a.6.6,0,1,0,0-1.2c4.9-.5,14.5-.4,16.9-4.7,4.5,3.4,19.9-1.6,25.7,1.2,11.1-2.3,18.8-7.3,33.1-5.3,1.9-1.5.7-2,0-3.6,8.3,3.2,19.2,1.1,23.7-4.2a2.875,2.875,0,0,0-.7,1.8c6.4-1.6,14.8-3.6,21-7.1,3,4.4,10.8,1.5,14.9,4.2,3.1-4.4,17.7-5.2,25.7-3.6.2-3,8.4-.6,11.5-2.4-.3,1.1,10.6,1.7,13.5,0,.3,1-.5,1.1-1.4,1.2,7.4,2,11.9,1.5,18.9,1.8a3,3,0,0,1-.7-2.4c.8,2.1,6.8,3,6.1.6,1.3,0,.9,1.6,2.7,1.2,1.1-1.8,3.8-2.2,4.7-4.1a35.932,35.932,0,0,1,4.7,1.2c1.7-.1-.9-1,0-2.4,6.3,0,13.6,3.1,14.9,0,1.3.1,2.3.6,4.1-1.2v1.8c3.4-4.8,9.6-2.8,16.2-3,.8-.1.6-1.1.7-1.8,8.7.8,10.9-2.1,17.6,0,.9.1.5-1.2-.4-1.7,6.1.7,11.6-1.5,17.3-1.9.2-1.7-1.5-1.8-1.4-3.6,1.2-1.1,2,.3,3.4.6-.3-.5-.6-1.1-1.3-1.2.2-2.3,5.4,1.1,5.4-2.4,5.2,1.4,11.1-.2,17.6,2.4,4.8-2.5,12.1-1.4,17.6,0,2.9-2.7,7.9-3.8,9.5-3.6,1-3.5,4.3-2.3,6.1-6.5,1.2,4,5.7.2,6.8,2.4.8-.1.6-1.1.7-1.8,7,2.5,13,.1,19.6,3,3.1-3.7,6.2-1.5,10.8-2.4.1-1.3-.6-1.9-2-1.8,1.7-1.8,8.8.4,2,0a3.525,3.525,0,0,1,.7,3c1.2-.1.4-2,1.4-2.4,2.2,3.5,7.4,2,11.5,1.8-1-.7-1.7-1.7-3.4-1.8,7.3-.1,15.5.8,23-2.4,1,.5,2.1.9,2,2.4.8-1.2,2.1-3.5,3.8-2.6-.8-.7.9-1.2-.2-1.5,3.9.9,5.2-3.1,11.3-1.8,1-.3,0-.6-.7-.6,8.7-6.3,26,6.1,37.9-1.2,5.1,1.5,10.5-.9,15.5.6-2.6-3.1,7.8,1.8,10.8-2.4-.5,1.9,1.3.9,1.4,0,.9.2.1,1-.7,1.2a4.664,4.664,0,0,0,2,1.2c.2-.7.9-2.2,4.1-1.8-.8-.7-.8-2.1-.7-3.6.9-1.9.7,2.1.7,3,9,2.4,12.1-4.3,17.6-3.6.5-1.6-1.4-1.1-2-1.8.5-1.3,3.2-2,4.1-1.2-.2.9-1.2-.5-1.4.6.2.6,1.3.4,1.4,1.2,3.4-1.8,4.6-1.8,8.8-1.2a5.684,5.684,0,0,0,2-3.6c3-.1-.6,1.5,0,3,2.9-3.7,5.6-.9,7.4-6,.9.8,1.4,1.8,2,0,1,.3-.3.8,0,1.8,2.3.2.7-2.9,4.1-1.8-.1-1.1-2.3-.4-2.7-1.2-1.5-1.9,4.1,1.9,4.7,0,.9.2.6,1.5.7,2.4.6-.3,1-1.7,1.4-.6,1-.3-.3-.8,0-1.8,1.3.2.5,2.3,2.7,1.8,1.6-.2-.7-1.6-1.4-1.8,1.1-.2,4.8,2.5,5.4,4.8.8-1.3,3.2-1.2,3.4-3,1.1.9-.6,3,2.7,3,.3-1.7.7.2,1.3-1.8.8,1.8,2.7-.2,1.4,1.8,1.4.2,2.1-.1,2-1.2a26.157,26.157,0,0,1,3.4,2.4c2.7-.7,3.4-2.4,6.7-1.2.5-2.6-1.3.5-1.3-1.2,2.6-3,7.1-1,8.1-4.8,7.8,2.3,19.7,0,23,5.4.9-.2.6-1.5.7-2.4,1.7,1.3,3.3,2.6,6.1,3-3.8-2,4.9-.9,5.4.6.9-.2.6-1.5.7-2.4,1.6.3,3.5,2.6,7.4.6.8.1.6,1.1.7,1.8,1.1-1.8,9,1.5,11.5-1.8,1.7,1,1.9,1.5,4.1,3a4.887,4.887,0,0,0,1.4-1.8c-5.1,0,1.1-2.9-2-4.8,1.2-.9,3.5,2.4,4.1,4.2,1.2-1.5,2.7-2.8,3.4-4.8,4.6-.5,10.6,1.4,13.5,4.8,3,.2,4.6-2.1,8.1-.6.8-2.5.7-4.6-.7-6.5-.5-1.5,2.3,3.2,3.4,4.2.8-1.7,3.6-1.2,4.1-1.8.8.1.6,1.1.7,1.8,1.5.2,2.5-.1,2.7-1.2.9.2.6,1.5.7,2.4a3.238,3.238,0,0,0,2-1.8c1,1.2,4.5,2.7,3.4-.6,2.5-.4.8,2.8,2.7,3,2.2-1-2.4-2.2,0-3.6.7.4.1,1.8,1.4,3,.9-.2,1.1-1.1,2-1.2.3-1.4-3.1.3-2-1.8,1.4,1.3,2.2-.5,3.4.6-1.9-2.1-.3-1.6,0-4.2.5,3.4,8,2,6.1.6.9-1,2.3,2.6,3.4,1.8,1-.3-.3-.8,0-1.8,1.5-.3,3,3.6,3.4.6.8.1.6,1.1.7,1.8.8-.1.6-1.1.7-1.8a11.645,11.645,0,0,0,3.4,2.4c.9-.2.6-1.5.7-2.4.8.1.6,1.1.7,1.8,2-.5.8-.9.7-2.4,2.4.1,1.6,2.9,4.7,2.4-2.1-3-.1-.2,2.7-1.8-1.6,2.4,1-.7.7,1.8,1.4-1.8,3.8-.1,7.4-.6,9.3,3.7,19.1,5,24.3,9.5a231.646,231.646,0,0,1,23.6,1.2c-.3-1.3-3.3-.2-4.7-.6,11.6-.6,22.3,1.1,36.5-1.2,1.7-.1-.9-1,0-2.4,1.5.7,2.2,2,4,2.4.2-1.6-2.6-.5-2-2.4,5.2-.4,7.5,1.6,12.8,0-2.5,1.8,3.2.6,4,0,5.3,3,9.1.3,11.5,3,2.6.2,2.8-8.9,2.7-5.3.2,2.4.2,4.9,2.7,5.3.9-.2.6-1.5.7-2.4C1919.2,23.5,1919.6,23.7,1920,23.8Z" fill="#3f3735"/><path d="M1920,18.8V41a3.379,3.379,0,0,1-1.2-.6c-.1.9.2,2.2-.7,2.4-2.5-.4-2.5-2.9-2.7-5.3.1-3.6-.1,5.6-2.7,5.3-2.4-2.6-6.2,0-11.5-3-.8.6-6.5,1.8-4,0-5.4,1.6-7.6-.4-12.8,0-.6,1.9,2.2.8,2,2.4-1.8-.4-2.6-1.7-4-2.4-.9,1.3,1.7,2.2,0,2.4-14.2,2.2-24.9.6-36.5,1.2,1.4.4,4.4-.7,4.7.6a231.646,231.646,0,0,0-23.6-1.2c-5.2-4.5-15-5.8-24.3-9.5-3.6.5-6-1.2-7.4.6.3-2.4-2.3.6-.7-1.8-2.8,1.5-4.8-1.3-2.7,1.8-3.1.6-2.3-2.3-4.7-2.4.1,1.5,1.3,1.9-.7,2.4-.1-.7.1-1.7-.7-1.8-.1.9.2,2.2-.7,2.4a13.139,13.139,0,0,1-3.4-2.4c-.1.7.1,1.7-.7,1.8-.1-.7.1-1.7-.7-1.8-.3,3-1.9-.9-3.4-.6-.3,1,1,1.5,0,1.8-1.1.8-2.4-2.8-3.4-1.8,1.9,1.4-5.6,2.8-6.1-.6-.3,2.5-1.9,2,0,4.2-1.2-1.1-2,.7-3.4-.6-1.1,2.1,2.3.4,2,1.8-1,.1-1.1,1-2,1.2-1.3-1.2-.6-2.5-1.4-3-2.4,1.3,2.2,2.6,0,3.6-1.9-.2-.2-3.4-2.7-3,1.2,3.3-2.4,1.8-3.4.6a3.238,3.238,0,0,1-2,1.8c-.1-.9.2-2.2-.7-2.4-.2,1-1.2,1.4-2.7,1.2-.1-.7.1-1.7-.7-1.8-.4.6-3.2.1-4.1,1.8-1-.9-3.9-5.7-3.4-4.2a6.77,6.77,0,0,1,.7,6.5c-3.5-1.5-5.1.8-8.1.6-2.9-3.3-8.9-5.3-13.5-4.8-.7,2-2.2,3.2-3.4,4.8-.5-1.8-2.8-5-4.1-4.2,3.1,1.8-3.1,4.8,2,4.8a4.887,4.887,0,0,1-1.4,1.8c-2.1-1.5-2.3-2-4.1-3-2.5,3.2-10.4,0-11.5,1.8-.1-.7.1-1.7-.7-1.8-3.9,2-5.8-.3-7.4-.6-.1.9.2,2.2-.7,2.4-.5-1.4-9.2-2.6-5.4-.6-2.8-.3-4.4-1.7-6.1-3-.1.9.3,2.2-.7,2.4-3.3-5.4-15.2-3-23-5.4-1,3.8-5.5,1.8-8.1,4.8,0,1.7,1.8-1.4,1.3,1.2-3.3-1.2-4,.4-6.7,1.2a26.157,26.157,0,0,0-3.4-2.4c.1,1.1-.7,1.4-2,1.2,1.3-1.9-.6,0-1.4-1.8-.6,2-1,.1-1.3,1.8-3.3,0-1.6-2.1-2.7-3-.2,1.8-2.6,1.7-3.4,3-.6-2.3-4.3-4.9-5.4-4.8.6.2,3,1.6,1.4,1.8-2.2.5-1.4-1.5-2.7-1.8-.3,1,1,1.5,0,1.8-.3-1.1-.7.3-1.4.6-.1-.9.2-2.2-.7-2.4-.7,1.9-6.2-1.9-4.7,0,.4.8,2.6.1,2.7,1.2-3.3-1.1-1.8,2-4.1,1.8-.3-1,1-1.5,0-1.8-.7,1.8-1.1.8-2,0-1.9,5.1-4.6,2.2-7.4,6-.6-1.5,3-3.1,0-3a5.684,5.684,0,0,1-2,3.6c-4.1-.6-5.4-.6-8.8,1.2,0-.8-1.2-.6-1.4-1.2.2-1.1,1.1.3,1.4-.6-.9-.8-3.6-.1-4.1,1.2.6.6,2.5.2,2,1.8-5.4-.7-8.6,5.9-17.6,3.6,0-.9.3-4.9-.7-3-.1,1.5-.1,2.9.7,3.6-3.2-.4-3.8,1-4.1,1.8a3.738,3.738,0,0,1-2-1.2c.7-.1,1.6-1,.7-1.2,0,.9-1.8,1.9-1.4,0-3,4.2-13.4-.7-10.8,2.4-5-1.5-10.4.9-15.5-.6-11.9,7.3-29.2-5.2-37.9,1.2.7,0,1.7.3.7.6-6.1-1.3-7.4,2.8-11.3,1.8,1.1.3-.6.8.2,1.5-1.7-1-3,1.4-3.8,2.6.1-1.5-1-1.9-2-2.4-7.5,3.2-15.6,2.3-23,2.4,1.7.1,2.4,1.1,3.4,1.8-4,.2-9.3,1.7-11.5-1.8-.9.4-.1,2.3-1.4,2.4a3.684,3.684,0,0,0-.7-3c6.8.4-.3-1.8-2,0,1.5-.1,2.1.5,2,1.8-4.6.8-7.8-1.3-10.8,2.4-6.5-2.9-12.6-.5-19.6-3-.1.7.1,1.7-.7,1.8-1.1-2.2-5.6,1.6-6.8-2.4-1.8,4.2-5.1,3-6.1,6.5a14.9,14.9,0,0,0-9.5,3.6c-5.5-1.4-12.8-2.5-17.6,0-6.4-2.5-12.3-.9-17.6-2.4,0,3.5-5.2.1-5.4,2.4.8.1,1,.7,1.3,1.2-1.4-.3-2.2-1.7-3.4-.6-.2,1.7,1.5,1.8,1.4,3.6-5.7.4-11.1,2.6-17.3,1.9a1.183,1.183,0,0,0-1-.1c.3,0,.7.1,1,.1.8.5,1.3,1.8.4,1.7-6.7-2.1-8.9.8-17.6,0-.1.7.1,1.7-.7,1.8-6.6.2-12.8-1.8-16.2,3V79.2c-1.8,1.8-2.7,1.3-4.1,1.2-1.2,3.1-8.6,0-14.9,0-.9,1.4,1.7,2.2,0,2.4a40.509,40.509,0,0,0-4.7-1.2c-.9,1.9-3.6,2.4-4.7,4.1-1.8.4-1.4-1.2-2.7-1.2.7,2.4-5.3,1.5-6.1-.6a3.1,3.1,0,0,0,.7,2.4c-7.1-.2-11.6.2-18.9-1.8.8-.1,1.6-.2,1.4-1.2-2.9,1.7-13.9,1.1-13.5,0-3.1,1.8-11.3-.6-11.5,2.4-8-1.6-22.5-.8-25.7,3.6-4-2.7-11.9.2-14.9-4.2-6.1,3.5-14.5,5.5-21,7.1a2.41,2.41,0,0,1,.7-1.8c-4.5,5.3-15.4,7.3-23.7,4.2.7,1.6,1.9,2,0,3.6-14.3-1.9-22,3-33.1,5.3-5.8-2.7-21.2,2.2-25.7-1.2-2.4,4.3-12,4.3-16.9,4.7a.6.6,0,1,1,0,1.2c-5.7-2-10.2,1.7-14.2,1.8-9.1-2-19.8-1.8-27.7,3-3.6-3.5-11.3.3-12.2,2.4-4.5-1-4.8.5-8.1-1.8-.2,2.5-3.7,2.8-3.4,4.2-3.9-2.4-4.3,1.3-5.4-1.2-1.3,1.1.9,1.8-1.4,2.4-1.5-1.3-5-3.9-6.1-3.6,6.5,2.4-3.9,4.5-4.7,1.8-.6,3.8-6.2.5-7.4-.6-1.3,3.6-10.9-.1-12.8,4.2-3.2-1.3-7,.7-9.5.6,1.3-1.4-.2-.7-.7-1.8a4.312,4.312,0,0,0-2.7.6c-3.4-6.3-11.8-.8-17.6-1.2-5.3-.4-8.9-3.9-12.7-4.2a1.278,1.278,0,0,0,1.2-1.1c-5.2.5-8.8,3.2-15.5,3,1.4,6-13.2,2.8-18.9,3-.3,1,1,1.5,0,1.8-1.4-.2-1.3-1.6-2.7-1.8,1,1.9-.2,1.7-1.4,3-.6-.9-5.9-2.6-4.7-1.2,1.3.1,2.3.4,2.7,1.2-7,.9-8.1-3-14.2-1.2.5.1,1.3,0,1.4.6-5.2,3.3-9.2,5.1-14.2,3.6-2.4-.6-10.4-.4-13.5-2.4,1.1,2.7-3.3,1.9-4.1,1.2-1,2.3,3,.1,2,2.4-.9-.9-3.8-.9-4.7,0,1.5-1.4-4.9-3.3-5.4-3a3.738,3.738,0,0,1,2,1.2c-2.5-.6-2.2,1.3-3.4,1.8-3.2-1-7.1-4.4-10.1-3.6,1.7.6-.5,2.6-2,2.4-5.4-2.7-8.9,2-14.9-.6,1.6,2.5-.9,1.1-2,2.4a2.365,2.365,0,0,1,1.4,1.2c.4-.3,4-.2,4.7.6-7.4,1.8-17.8-3.9-27-2.4-.1-.7,1-.9,0-1.2-.1,1.1-2.5-.5-3.4-.6-8.6,5.4-29.6,3.9-38.5,3-1.5.4-1.2,2.8-4.7,1.2-1.1,1.3-1.8,1.5-2,2.4-5.9.1-10.9-.5-15.5,1.8-2.8-.4-4.4-2.8-6.8-2.4.4.5,2.8,2.2,1.4,2.4-3.1-.8-4.7.7-6.1-1.8-.1.7.1,1.7-.7,1.8-5.2-3.9-11.9,3.7-16.9-1.2-2,.3,1,.9.7,1.8-9.1-3-14.3-1.6-23-3,2.6,1-2.9,3.1-4.1,2.4-.2-.2-.5-.3-.6-.6.9-.9-.5-.8,0,0-.2.2-.5.4-.7.6,0,0-1.6-.3-2,0,.1-.1-2.7,3.4-2,3.6-2.5.3-3.9,1.8-6.2,2.3-4.6-2.4-10.3-3.5-13.5-4.7,3,2.1.6.4-1.4,0-.4-.1-1.9.7-2.7.6-7.8-1.2-14.8-2.4-20.3-1.8-1.5,2.2-.4,3-3.4,4.1-3.9-.1-10.1-4.3-12.2-.6,1.7-.1,2.1-1.1,2.7.6-2.7-.8-1.4,2-4,1.2-1.3-.1.4-1.1-.7-1.2-10.3-1-13.8,3.2-19.7,2.4.6.1,1,.4.8,1.1-1.6,1.1-5.5-1.2-7.4.6,3.6-.3.7,1,0,1.8.2-2.4-.9.1-2.7-.6-1.2-.4,0-2.8-1.4-3,0,1.8-2.8,2.5-4.7,4.2-4.8-1.2-11.9-2.7-16.6-2.9,2.7.2-1.7,1.7,1.1,2.4-2.8-.7-6.4,1.8-8.1-1.8-.5,3-4.8,0-6.8.6,1.1,1.1-2.8-.7-2,1.2-2.3-2-5.1.6-7.4.6-8.1-.9-17.9-2-23,.6-2.8,1.4-4.5-.5-4.1-.6-4,.8-7.9,5.5-14.2,2.4-1.7.8-.4,1.2-1.4,1.8-4.4,1.1-10.7-1-16.2-1.2-2.3-.1-6.7,2.1-6.8,0-.9,2.1-2.8,2.4,0,3.6-1.7,1-5.9-.5-5.4,1.2-6.4-2.9-9.7,0-14.9-1.8,1.2,4-6.6,1.3-10.5.7,1.1.4,2.2,1.5,1.1,1.7-4.2-.1-8.8-5.4-14.9-3.6,1.8.7,1.7.3,4.1,0-2.9,1.9,0,3.2-2,4.2-1.8-3.4-4.5-.5-6.8-.6.5.1,1.3,0,1.3.6-2.9-.6-2.6,1.7-4.7,1.8-1.1-.5-2.4-3.7-3.4-2.4,1.6.1.1,2-.7,1.8-1.9-1.1-3.9,1.3-6.1,0a2.693,2.693,0,0,1-1.4,2.4c-.2-.9-2.8-2.6-3.4-1.2,2.9,1-2.2.9-3.4,1.2,1.8-1.5-1.3-.9-1.3-2.4-2.3.2-4.6.3-6.1,1.2a1.881,1.881,0,0,1,2,1.2c-1.5.1-3-2.9-4.1-1.2-.1,1,1.9,1.8,3.4,3-2.9,2.6-10.1-.5-13.5,3.6-2.3-.1-3.3-1.5-6.1-1.2-.4,1.1-.3,2.5-1.3,3-1.6-2.7-9.1,3.5-13.5.6-.6,1,0,3.2-2,3,.8-.8-3.7-2.3-5.4-4.2-1.9-.3,1.7,2.2-.7,2.4-1.1-1.6-3.7-1-5.4-1.2a1.952,1.952,0,0,1,1.3,1.2c-3.7.5-11.3.6-8.1,3.6-4.1,2.2-13.2,5.6-14.9,1.8-2.3,1.2,1.6,2,0,2.4-2.3.2-1.4-1.3-3.4-2.4,0,2.4-3.5,1.7-6.1,1.8-.8,1.9,2.2.5,1.4,2.4-1-.9-3.3-1.9-4.7-.6-.2,1.2.9,1.2,1.4,1.8a19.457,19.457,0,0,1-12.6-.6,2.075,2.075,0,0,0-1-.6,2.075,2.075,0,0,0,1,.6c1.8,1.6-1.4,3.3-3,1.2-.4,4.4-6-.7-7.4,1.2,2.6,2-5.4.3-6.8,1.2-.4.9.8,3.1-.7,3-3.6-.5-4-1.8-9.5-.6.8.1,1.9-.1,2,.6-5,.2-1.2-1.6-6.1-.6-1.2-1.5,1-2.3-1.4-2.4-1.1.2.1.8,0,1.8-3.6-1.7-7.1,1.3-9.5-1.2-2.5,2.3-7-.3-10.1.6-.3,3.3-9.9-.7-12.9.6-.1,1.6,1.1,1.2,0,2.4-2.9-1.9-3.7,0-6.1-.6.7,2-.3,1.8,1.4,3-2.5-1.2-4,.5-6.1,1.2,1.6-2.6-3.3.5-4.1-1.8-.3,1.1,2.1,2.5-.7,2.4-1.7.3,1.6-2.7-.7-3-.9.4-.1,2.3-1.4,2.4-.8-3.4-2.9.5-4.1.6-1.3-.1-.5-2-2-1.8.7,2.8-2.3,1.7-2.7.6-.6,1.4,2.4,2.6.7,3-3.5-1-6.9.9-10.1,3-1.9-.1-1.9-1.9-3.4-2.4-.9,1.4,1.7,2.2,0,2.4-2.6.4-4.2-2.4-4.1-4.7-.4,4.3-4.8,3-7.4,5.3-.6-1.1,2-2,0-2.4-1.3,2.2-2.7.5-4.7,2.4.3-3.4-2,1.1-2.7-2.4-2.5,2.9-5.6,1.7-8.8-.6-.1.9.2,2.2-.7,2.4-2.6-1.8-.4-2.2-4.1-4.2-.9,1.8,2.3,3,.7,3.6-2.8.2-7-3.8-6.8-2.4.7.4,3.5,2,2,2.4-3.9.4-3.6-2.6-6.8-1.2,1,.5-1.9.9-1.3,1.8-2.3-1.2-9.3,1.6-14.2-1.8-1.2,1.5-2.9.6-4.7,2.4-.4-.9.8-3.1-.7-3a1.723,1.723,0,0,1-1.3,1.8c-4.2-1.9-8.8-4.8-14.9-2.4,1.2.3,2.8.3,3.4,1.2-2.5-.6-1.9,1.5-4.1,1.2,1-1.2-8.7-2.5-8.1-.6-2.4-2.9-9.4,1.2-9.5,1.2,0,0-1-1.3-2-1.2-5.1.4-15.3,4.4-16.2.6-2.3,1.3-9.7-4.1-9.5-1.2.2-.9,1.1-.1,1.3.6-3.8.9-12.7-.6-16.9-3-.2,1.2.9,1.2,1.3,1.8-1.7.6-2.4-2.6-3.4-.6,1.5-.1,2.2.5,2,1.8-1.3-.7-3.4.5-4.7-1.2-.6,3.1-3.1.3-2,3-2.2.5-2.6-.5-3.4-1.2.5,1.6-1.4,1.2-2,1.8-.4-.5-1.4-3.4-2-1.8.8.1.7.9.7,1.8-7.8-1-10.9-6.4-20.3-3.6a.758.758,0,0,1-.4-.2V168c.1.1.3.1.4.2,9.4-2.8,12.5,2.6,20.3,3.6.1-.9.1-1.7-.7-1.8.6-1.6,1.6,1.3,2,1.8.6-.6,2.5-.2,2-1.8.8.7,1.2,1.7,3.4,1.2-1.1-2.6,1.4.2,2-3,1.3,1.7,3.4.5,4.7,1.2.1-1.3-.6-1.9-2-1.8,1-2,1.7,1.2,3.4.6-.4-.6-1.6-.6-1.3-1.8,4.2,2.3,13.1,3.8,16.9,3-.2-.7-1.2-1.5-1.3-.6-.2-2.9,7.2,2.5,9.5,1.2.9,3.8,11.1-.2,16.2-.6,1-.1,2,1.2,2,1.2.1,0,7.1-4.1,9.5-1.2-.6-2,9.1-.6,8.1.6,2.1.3,1.5-1.8,4.1-1.2-.6-.9-2.2-.9-3.4-1.2,6.1-2.4,10.6.4,14.9,2.4a1.656,1.656,0,0,0,1.3-1.8c1.5-.1.3,2.1.7,3,1.9-1.7,3.6-.9,4.7-2.4,4.9,3.4,11.9.5,14.2,1.8-.6-.9,2.4-1.2,1.3-1.8,3.1-1.4,2.8,1.5,6.8,1.2,1.5-.4-1.3-2-2-2.4-.2-1.5,4,2.6,6.8,2.4,1.6-.5-1.5-1.7-.7-3.6,3.7,2,1.4,2.3,4.1,4.2.9-.2.6-1.5.7-2.4,3.2,2.3,6.3,3.5,8.8.6.7,3.5,3-1,2.7,2.4,2-1.9,3.4-.2,4.7-2.4,2,.4-.6,1.3,0,2.4,2.6-2.3,7-1,7.4-5.3-.1,2.4,1.5,5.2,4.1,4.7,1.7-.1-.9-1,0-2.4,1.5.4,1.5,2.3,3.4,2.4,3.2-2.1,6.7-3.9,10.1-3,1.7-.4-1.3-1.6-.7-3,.4,1.1,3.4,2.2,2.7-.6,1.6-.2.7,1.7,2,1.8,1.2-.1,3.3-4,4.1-.6,1.3-.1.4-2,1.4-2.4,2.3.2-1,3.3.7,3,2.8.2.4-1.3.7-2.4.7,2.3,5.7-.8,4.1,1.8,2.1-.7,3.6-2.4,6.1-1.2-1.6-1.2-.7-.9-1.4-3,2.4.6,3.2-1.3,6.1.6,1.1-1.2-.1-.8,0-2.4,3-1.2,12.5,2.7,12.9-.6,3.1-.9,7.6,1.7,10.1-.6,2.4,2.4,5.8-.5,9.5,1.2.1-1-1.1-1.5,0-1.8,2.4.1.2.9,1.4,2.4,4.9-1,1.1.8,6.1.6-.1-.7-1.2-.5-2-.6,5.5-1.2,5.9.1,9.5.6,1.5.1.3-2.1.7-3,1.4-.8,9.3.8,6.8-1.2,1.4-1.9,7.1,3.2,7.4-1.2,1.6,2.1,4.7.4,3-1.2a19.426,19.426,0,0,0,12.6.6c-.4-.6-1.6-.6-1.4-1.8,1.5-1.3,3.8-.3,4.7.6.8-1.9-2.2-.5-1.4-2.4,2.6-.1,6.1.6,6.1-1.8,2,1.1,1.1,2.6,3.4,2.4,1.6-.4-2.3-1.1,0-2.4,1.7,3.9,10.7.4,14.9-1.8-3.2-3,4.4-3.1,8.1-3.6a1.952,1.952,0,0,0-1.3-1.2c1.7.2,4.3-.4,5.4,1.2,2.4-.2-1.2-2.6.7-2.4,1.8,1.9,6.2,3.4,5.4,4.2,2,.2,1.4-1.9,2-3,4.4,2.9,11.9-3.3,13.5-.6,1-.5,1-1.9,1.3-3,2.8-.3,3.8,1,6.1,1.2,3.4-4.1,10.6-.9,13.5-3.6-1.4-1.2-3.4-2-3.4-3,1.1-1.7,2.5,1.3,4.1,1.2a1.955,1.955,0,0,0-2-1.2c1.5-.9,3.8-1,6.1-1.2.1,1.5,3.1.8,1.3,2.4,1.2-.3,6.3-.2,3.4-1.2.5-1.4,3.2.3,3.4,1.2a2.693,2.693,0,0,0,1.4-2.4c2.2,1.3,4.2-1.1,6.1,0,.8.2,2.3-1.7.7-1.8.9-1.4,2.3,1.9,3.4,2.4,2.1-.1,1.8-2.3,4.7-1.8,0-.6-.8-.5-1.3-.6,2.3.1,4.9-2.8,6.8.6,2.1-.9-.9-2.3,2-4.2-2.4.3-2.2.7-4.1,0,6-1.8,10.7,3.5,14.9,3.6,1.1-.1.1-1.3-1.1-1.7,3.9.6,11.7,3.3,10.5-.7,5.2,1.7,8.4-1.1,14.9,1.8-.5-1.7,3.7-.2,5.4-1.2-2.8-1.1-.9-1.5,0-3.6.1,2.1,4.4-.1,6.8,0,5.6.2,11.8,2.3,16.2,1.2.9-.6-.3-1,1.4-1.8,6.3,3.2,10.1-1.6,14.2-2.4-.4.1,1.3,2,4.1.6,5-2.6,14.8-1.5,23-.6,2.3,0,5.1-2.6,7.4-.6-.8-1.9,3.1-.1,2-1.2,1.9-.6,6.3,2.5,6.8-.6,1.7,3.5,5.3,1.1,8.1,1.8-2.8-.7,1.6-2.1-1.1-2.4,4.7.2,11.8,1.7,16.6,2.9,1.9-1.6,4.7-2.3,4.7-4.2,1.4.2.2,2.6,1.4,3,1.8.7,2.9-1.8,2.7.6.7-.8,3.6-2.1,0-1.8,2-1.8,5.9.5,7.4-.6.2-.8-.2-1-.8-1.1,6,.8,9.4-3.4,19.7-2.4,1.1.1-.6,1.1.7,1.2,2.7.8,1.4-2,4-1.2-.6-1.7-1-.7-2.7-.6,2-3.7,8.2.5,12.2.6,2.9-1.1,1.9-2,3.4-4.1,5.5-.6,12.4.6,20.3,1.8.8.1,2.3-.7,2.7-.6,1.9.4,4.3,2.1,1.4,0,3.2,1.2,8.9,2.3,13.5,4.7,2.3-.5,3.6-2,6.2-2.3-.8-.2,2.1-3.7,2-3.6.4-.3,2,0,2,0a4.349,4.349,0,0,0,.7-.6l.6.6c1.2.7,6.7-1.4,4.1-2.4,8.7,1.4,13.9,0,23,3,.4-.9-2.6-1.4-.7-1.8,5,4.9,11.7-2.7,16.9,1.2.8-.1.6-1.1.7-1.8,1.4,2.5,3,1,6.1,1.8,1.4-.2-1-1.9-1.4-2.4,2.3-.4,4,2,6.8,2.4,4.6-2.3,9.6-1.7,15.5-1.8.2-.9.9-1.1,2-2.4,3.5,1.6,3.2-.7,4.7-1.2,8.9.9,29.9,2.4,38.5-3,.9.1,3.3,1.7,3.4.6,1,.3-.1.5,0,1.2,9.2-1.5,19.7,4.1,27,2.4-.7-.7-4.3-.9-4.7-.6a1.916,1.916,0,0,0-1.4-1.2c1.1-1.3,3.7.1,2-2.4,5.9,2.6,9.5-2.1,14.9.6,1.5.3,3.7-1.8,2-2.4,3-.8,7,2.6,10.1,3.6,1.2-.5.9-2.4,3.4-1.8a5.929,5.929,0,0,0-2-1.2c.5-.4,6.9,1.5,5.4,3,.9-.9,3.8-.9,4.7,0,1-2.3-3-.1-2-2.4.8.7,5.2,1.5,4.1-1.2,3.1,2,11.1,1.8,13.5,2.4,5,1.5,8.9-.3,14.2-3.6,0-.6-.8-.5-1.4-.6,6.1-1.8,7.2,2.1,14.2,1.2-.4-.8-1.4-1.1-2.7-1.2-1.2-1.4,4.1.3,4.7,1.2,1.2-1.2,2.4-1,1.4-3,1.4.2,1.3,1.6,2.7,1.8,1-.3-.3-.8,0-1.8,5.7-.2,20.3,3,18.9-3,6.8.2,10.4-2.4,15.5-3a1.278,1.278,0,0,1-1.2,1.1c3.8.3,7.4,3.9,12.7,4.2,5.8.4,14.1-5.1,17.6,1.2a4.312,4.312,0,0,1,2.7-.6c.5,1.1,2,.4.7,1.8,2.4.1,6.3-1.9,9.5-.6,1.9-4.3,11.6-.5,12.8-4.2,1.2,1.1,6.8,4.4,7.4.6.8,2.7,11.2.7,4.7-1.8,1.1-.4,4.6,2.3,6.1,3.6,2.3-.5.1-1.3,1.4-2.4,1.1,2.5,1.5-1.2,5.4,1.2-.3-1.3,3.1-1.7,3.4-4.2,3.3,2.3,3.6.7,8.1,1.8.9-2,8.6-5.8,12.2-2.4,7.9-4.7,18.6-5,27.7-3,4-.1,8.5-3.8,14.2-1.8a.6.6,0,1,0,0-1.2c4.9-.5,14.5-.4,16.9-4.7,4.5,3.4,19.9-1.6,25.7,1.2,11.1-2.3,18.8-7.3,33.1-5.3,1.9-1.5.7-2,0-3.6,8.3,3.2,19.2,1.1,23.7-4.2a2.875,2.875,0,0,0-.7,1.8c6.4-1.6,14.8-3.6,21-7.1,3,4.4,10.8,1.5,14.9,4.2,3.1-4.4,17.7-5.2,25.7-3.6.2-3,8.4-.6,11.5-2.4-.3,1.1,10.6,1.7,13.5,0,.3,1-.5,1.1-1.4,1.2,7.4,2,11.9,1.5,18.9,1.8a3,3,0,0,1-.7-2.4c.8,2.1,6.8,3,6.1.6,1.3,0,.9,1.6,2.7,1.2,1.1-1.8,3.8-2.2,4.7-4.1a35.932,35.932,0,0,1,4.7,1.2c1.7-.1-.9-1,0-2.4,6.3,0,13.6,3.1,14.9,0,1.3.1,2.3.6,4.1-1.2v1.8c3.4-4.8,9.6-2.8,16.2-3,.8-.1.6-1.1.7-1.8,8.7.8,10.9-2.1,17.6,0,.9.1.5-1.2-.4-1.7,6.1.7,11.6-1.5,17.3-1.9.2-1.7-1.5-1.8-1.4-3.6,1.2-1.1,2,.3,3.4.6-.3-.5-.6-1.1-1.3-1.2.2-2.3,5.4,1.1,5.4-2.4,5.2,1.4,11.1-.2,17.6,2.4,4.8-2.5,12.1-1.4,17.6,0,2.9-2.7,7.9-3.8,9.5-3.6,1-3.5,4.3-2.3,6.1-6.5,1.2,4,5.7.2,6.8,2.4.8-.1.6-1.1.7-1.8,7,2.5,13,.1,19.6,3,3.1-3.7,6.2-1.5,10.8-2.4.1-1.3-.6-1.9-2-1.8,1.7-1.8,8.8.4,2,0a3.525,3.525,0,0,1,.7,3c1.2-.1.4-2,1.4-2.4,2.2,3.5,7.4,2,11.5,1.8-1-.7-1.7-1.7-3.4-1.8,7.3-.1,15.5.8,23-2.4,1,.5,2.1.9,2,2.4.8-1.2,2.1-3.5,3.8-2.6-.8-.7.9-1.2-.2-1.5,3.9.9,5.2-3.1,11.3-1.8,1-.3,0-.6-.7-.6,8.7-6.3,26,6.1,37.9-1.2,5.1,1.5,10.5-.9,15.5.6-2.6-3.1,7.8,1.8,10.8-2.4-.5,1.9,1.3.9,1.4,0,.9.2.1,1-.7,1.2a4.664,4.664,0,0,0,2,1.2c.2-.7.9-2.2,4.1-1.8-.8-.7-.8-2.1-.7-3.6.9-1.9.7,2.1.7,3,9,2.4,12.1-4.3,17.6-3.6.5-1.6-1.4-1.1-2-1.8.5-1.3,3.2-2,4.1-1.2-.2.9-1.2-.5-1.4.6.2.6,1.3.4,1.4,1.2,3.4-1.8,4.6-1.8,8.8-1.2a5.684,5.684,0,0,0,2-3.6c3-.1-.6,1.5,0,3,2.9-3.7,5.6-.9,7.4-6,.9.8,1.4,1.8,2,0,1,.3-.3.8,0,1.8,2.3.2.7-2.9,4.1-1.8-.1-1.1-2.3-.4-2.7-1.2-1.5-1.9,4.1,1.9,4.7,0,.9.2.6,1.5.7,2.4.6-.3,1-1.7,1.4-.6,1-.3-.3-.8,0-1.8,1.3.2.5,2.3,2.7,1.8,1.6-.2-.7-1.6-1.4-1.8,1.1-.2,4.8,2.5,5.4,4.8.8-1.3,3.2-1.2,3.4-3,1.1.9-.6,3,2.7,3,.3-1.7.7.2,1.3-1.8.8,1.8,2.7-.2,1.4,1.8,1.4.2,2.1-.1,2-1.2a26.157,26.157,0,0,1,3.4,2.4c2.7-.7,3.4-2.4,6.7-1.2.5-2.6-1.3.5-1.3-1.2,2.6-3,7.1-1,8.1-4.8,7.8,2.3,19.7,0,23,5.4.9-.2.6-1.5.7-2.4,1.7,1.3,3.3,2.6,6.1,3-3.8-2,4.9-.9,5.4.6.9-.2.6-1.5.7-2.4,1.6.3,3.5,2.6,7.4.6.8.1.6,1.1.7,1.8,1.1-1.8,9,1.5,11.5-1.8,1.7,1,1.9,1.5,4.1,3a4.887,4.887,0,0,0,1.4-1.8c-5.1,0,1.1-2.9-2-4.8,1.2-.9,3.5,2.4,4.1,4.2,1.2-1.5,2.7-2.8,3.4-4.8,4.6-.5,10.6,1.4,13.5,4.8,3,.2,4.6-2.1,8.1-.6.8-2.5.7-4.6-.7-6.5-.5-1.5,2.3,3.2,3.4,4.2.8-1.7,3.6-1.2,4.1-1.8.8.1.6,1.1.7,1.8,1.5.2,2.5-.1,2.7-1.2.9.2.6,1.5.7,2.4a3.238,3.238,0,0,0,2-1.8c1,1.2,4.5,2.7,3.4-.6,2.5-.4.8,2.8,2.7,3,2.2-1-2.4-2.2,0-3.6.7.4.1,1.8,1.4,3,.9-.2,1.1-1.1,2-1.2.3-1.4-3.1.3-2-1.8,1.4,1.3,2.2-.5,3.4.6-1.9-2.1-.3-1.6,0-4.2.5,3.4,8,2,6.1.6.9-1,2.3,2.6,3.4,1.8,1-.3-.3-.8,0-1.8,1.5-.3,3,3.6,3.4.6.8.1.6,1.1.7,1.8.8-.1.6-1.1.7-1.8a11.645,11.645,0,0,0,3.4,2.4c.9-.2.6-1.5.7-2.4.8.1.6,1.1.7,1.8,2-.5.8-.9.7-2.4,2.4.1,1.6,2.9,4.7,2.4-2.1-3-.1-.2,2.7-1.8-1.6,2.4,1-.7.7,1.8,1.4-1.8,3.8-.1,7.4-.6,9.3,3.7,19.1,5,24.3,9.5a231.646,231.646,0,0,1,23.6,1.2c-.3-1.3-3.3-.2-4.7-.6,11.6-.6,22.3,1.1,36.5-1.2,1.7-.1-.9-1,0-2.4,1.5.7,2.2,2,4,2.4.2-1.6-2.6-.5-2-2.4,5.2-.4,7.5,1.6,12.8,0-2.5,1.8,3.2.6,4,0,5.3,3,9.1.3,11.5,3,2.6.2,2.8-8.9,2.7-5.3.2,2.4.2,4.9,2.7,5.3.9-.2.6-1.5.7-2.4A3.379,3.379,0,0,0,1920,18.8Z" fill="#ededed"/></svg>