<svg xmlns="http://www.w3.org/2000/svg" viewBox="0 0 104.31 286.64"><defs><style>.cls-1{fill:#38312f;}</style></defs><title>dateAsset 1</title><g id="Layer_2" data-name="Layer 2"><g id="_1" data-name="1"><path class="cls-1" d="M102.21,172.9h0l0-1.71.27-19.46,1.5,0v-4.85l-5.49-.16,4.2-1.13v-3.88h-7.1v-4.36L2.42,136.1,0,141.1l.65,8.56,42,.85,1,2.84-.95.39-1.18-2.87-4.4,1.8,7.31,18.57L50,185.37l15.36.22,22.3.31,14.35.21h1.2V173C103.07,172.93,102.72,172.91,102.21,172.9Zm-42.74-1.66-7-17.05-2.64.64-1.6-4.2,41.88.84c0,4.93,0,14.12.05,19.7,0,.61,0,1.18,0,1.7H87.61l-12.1.07L60,172.48Z"/><path class="cls-1" d="M46.41,91.86l2.45,5.79,13.66.22-.05-.12,3,0,22.29.32,3.42,0,10.93.16h1.21V85.15h-.08l.26-18.8h-3l-.14-1.86h3V60h-5V58.52h3V53.7l-4.71-.11-95.21.22-.12,4,3.21.11-.34,2L2.3,60l.23,3.9L6,63.56l.22,2.07-3.78-.35L2.3,70.44l38.5-.7-2.73,1.11,3.11,7.91L34.64,81.2,9.15,90.87l.55,2.66L1.88,96.22l2.58,4.56L8,99.67l.36,1-2.91,1.09,1.66,4.45,27-9.94Zm3.08-22.28,41.6-.77c0,3.66,0,10.58,0,16.26H87.71l-12.11.07-18.87-.56-5-12.22L50.8,73Z"/><path class="cls-1" d="M69.23,125.86l.41-2.69,8.27.21-.83-5.17-3.72-.2v-1h3.1v-4.75L1.08,111v14.88c1.45.21,27.7,0,27.7,0Z"/><polygon class="cls-1" points="103.7 3.83 101.79 3.83 101.79 0 97.77 0 97.77 2.78 96.9 2.78 96.9 0.1 94.7 0.1 94.7 1.15 90.2 1.15 91.32 18.86 8.45 18.07 8.45 21 2.43 21 2.43 26.38 8.29 26.38 8.29 27.03 5.03 27.03 5.03 31.58 92.07 30.65 93.2 48.41 98.08 48.41 98.08 49.37 104.31 49.16 103.7 3.83"/><path class="cls-1" d="M99,123.74l3.58.23-.46-3.58-2.2-1,2.31.12v-2.19h-.81s0-4.64.18-4.64l-18.39-.26.07,7.69h-.82v6.56l16.77-.81Z"/><polygon class="cls-1" points="94.82 233.95 95.55 236.47 99.74 236.68 99.43 231.85 104.25 231.96 102.78 195.35 72.17 195.46 72.17 199.87 67.46 199.97 67.25 204.8 69.97 204.8 69.97 205.95 67.67 206.16 67.77 210.66 89.37 210.67 89.37 220.4 77.52 220.4 38.81 196.83 1.63 196.83 1.63 234.89 28.68 234.89 28.68 233.32 44.71 233.32 44.71 229.23 30.25 229.23 30.25 228.29 44.92 228.29 44.92 226.82 42.09 226.82 42.09 222.1 14.85 222.1 14.85 211.83 36.22 211.83 73.64 234.58 89.68 234.58 89.68 237.62 93.98 237.72 94.08 233.84 94.82 233.95"/><polygon class="cls-1" points="94.82 282.86 95.55 285.38 99.74 285.59 99.43 280.77 104.25 280.87 102.78 244.27 72.17 244.37 72.17 248.78 67.46 248.89 67.25 253.71 69.97 253.71 69.97 254.86 67.67 255.07 67.77 259.57 89.37 259.58 89.37 269.31 77.52 269.31 38.81 245.74 1.63 245.74 1.63 283.81 28.68 283.81 28.68 282.23 44.71 282.23 44.71 278.14 30.25 278.14 30.25 277.2 44.92 277.2 44.92 275.74 42.09 275.74 42.09 271.02 14.85 271.02 14.85 260.75 36.22 260.75 73.64 283.49 89.68 283.49 89.68 286.53 93.98 286.64 94.08 282.76 94.82 282.86"/></g></g></svg>