<?xml version="1.0" encoding="utf-8"?>
<!-- Generator: Adobe Illustrator 22.1.0, SVG Export Plug-In . SVG Version: 6.00 Build 0)  -->
<svg version="1.1" id="Layer_1" xmlns="http://www.w3.org/2000/svg" xmlns:xlink="http://www.w3.org/1999/xlink" x="0px" y="0px"
	 viewBox="0 0 360.8 1080" style="enable-background:new 0 0 360.8 1080;" xml:space="preserve">
<style type="text/css">
	.st0{fill:#9A1F67;}
	.st1{opacity:0.3;}
	.st2{fill:#3F3735;}
	.st3{fill:#EDEDED;}
	.st4{fill:none;stroke:#EDEDED;stroke-width:1.0014;stroke-miterlimit:10;}
</style>
<rect x="0" class="st0" width="360.8" height="1080"/>
<g class="st1">
	<g>
		<rect x="0.1" y="719.5" class="st0" width="120.2" height="120.2"/>
		<rect x="120.3" y="719.5" class="st2" width="120.2" height="120.2"/>
		<rect x="240.5" y="719.5" class="st3" width="120.2" height="120.2"/>
		<rect x="0.1" y="839.7" class="st2" width="120.2" height="120.2"/>
		<rect x="120.3" y="839.7" class="st0" width="120.2" height="120.2"/>
		<rect x="240.5" y="839.7" class="st2" width="120.2" height="120.2"/>
		<rect x="0.1" y="959.8" class="st3" width="120.2" height="120.2"/>
		<rect x="120.3" y="959.8" class="st2" width="120.2" height="120.2"/>
		<rect x="240.5" y="959.8" class="st0" width="120.2" height="120.2"/>
		<g>
			<path class="st4" d="M96.1,839.7c0-6.5,2.5-12.6,7.1-17.1c4.6-4.6,10.7-7.1,17.1-7.1"/>
			<path class="st4" d="M102.7,839.7c0-4.7,1.8-9.1,5.1-12.4c3.3-3.3,7.7-5.1,12.4-5.1"/>
			<path class="st4" d="M9.3,839.7c0-29.7,11.5-57.5,32.5-78.5s48.9-32.5,78.5-32.5"/>
			<path class="st4" d="M16,839.7c0-27.9,10.9-54.1,30.6-73.8s45.9-30.6,73.8-30.6"/>
			<path class="st4" d="M22.6,839.7c0-26.1,10.2-50.6,28.6-69.1c18.4-18.4,43-28.6,69.1-28.6"/>
			<path class="st4" d="M29.3,839.7c0-24.3,9.5-47.2,26.7-64.4s40-26.7,64.4-26.7"/>
			<path class="st4" d="M36,839.7c0-22.5,8.8-43.7,24.7-59.6s37.1-24.7,59.6-24.7"/>
			<path class="st4" d="M42.7,839.7c0-20.7,8.1-40.2,22.7-54.9c14.7-14.7,34.2-22.7,54.9-22.7"/>
			<path class="st4" d="M49.3,839.7c0-19,7.4-36.8,20.8-50.2s31.2-20.8,50.2-20.8"/>
			<path class="st4" d="M56,839.7c0-17.2,6.7-33.3,18.8-45.5c12.1-12.1,28.3-18.8,45.5-18.8"/>
			<path class="st4" d="M62.7,839.7c0-15.4,6-29.9,16.9-40.7c10.8-11,25.3-17,40.7-17"/>
			<path class="st4" d="M69.4,839.7c0-13.6,5.3-26.4,14.9-36s22.4-14.9,36-14.9"/>
			<path class="st4" d="M76,839.7c0-11.8,4.6-22.9,13-31.3c8.4-8.4,19.5-13,31.3-13"/>
			<path class="st4" d="M82.7,839.7c0-10,3.9-19.5,11-26.6s16.5-11,26.6-11"/>
			<path class="st4" d="M89.4,839.7c0-8.3,3.2-16,9.1-21.9c5.8-5.8,13.6-9.1,21.9-9.1"/>
			<path class="st4" d="M2.6,839.7c0-65,52.7-117.7,117.7-117.7"/>
		</g>
		<g>
			<path class="st4" d="M360.6,857.2c-4.7,0-9.1-1.8-12.4-5.1s-5.1-7.7-5.1-12.4"/>
			<path class="st4" d="M360.6,950.7c-29.7,0-57.5-11.5-78.5-32.5s-32.5-48.9-32.5-78.5"/>
			<path class="st4" d="M360.6,937.3c-26.1,0-50.6-10.2-69.1-28.6c-18.4-18.4-28.6-43-28.6-69.1"/>
			<path class="st4" d="M360.6,924c-22.5,0-43.7-8.8-59.6-24.7s-24.7-37.1-24.7-59.6"/>
			<path class="st4" d="M360.6,910.6c-19,0-36.8-7.4-50.2-20.8c-13.4-13.4-20.8-31.2-20.8-50.2"/>
			<path class="st4" d="M360.6,897.3c-15.4,0-29.9-6-40.7-16.9C309,869.5,303,855.1,303,839.7"/>
			<path class="st4" d="M360.6,883.9c-11.8,0-22.9-4.6-31.3-13s-13-19.5-13-31.3"/>
			<path class="st4" d="M360.6,870.6c-8.3,0-16-3.2-21.9-9.1c-5.8-5.8-9.1-13.6-9.1-21.9"/>
		</g>
		<g>
			<path class="st3" d="M2.6,839.7c0,65,52.7,117.7,117.7,117.7V839.7H2.6z"/>
		</g>
		<g>
			<path class="st3" d="M360.6,1080c0-66.4-53.8-120.2-120.2-120.2V1080H360.6z"/>
		</g>
		<g>
			<path class="st0" d="M240.5,959.8c-66.4,0-120.2,53.8-120.2,120.2h120.2V959.8z"/>
		</g>
		<circle class="st0" cx="180.4" cy="779.6" r="14.2"/>
		<polygon class="st2" points="180.4,899.6 120.6,959.8 240.2,959.8 		"/>
		<polygon class="st2" points="180.4,899.6 120.6,839.7 240.2,839.7 		"/>
		<g>
			<path class="st2" d="M338.4,792.2h-24.5V816h-26.7v-23.8h-24.5V767h24.5v-23.8h26.7V767h24.5V792.2z"/>
		</g>
		<path class="st2" d="M0.2,1080c33.2,0,60.1-26.9,60.1-60.1s-26.9-60.1-60.1-60.1"/>
		<path class="st2" d="M120.3,1080c-33.2,0-60.1-26.9-60.1-60.1s26.9-60.1,60.1-60.1"/>
	</g>
	<g>
		<rect x="240.4" y="358.4" class="st0" width="120.2" height="120.2"/>
		<rect x="120.3" y="358.4" class="st2" width="120.2" height="120.2"/>
		<rect x="0.2" y="358.4" class="st3" width="120.2" height="120.2"/>
		<rect x="240.4" y="478.5" class="st2" width="120.2" height="120.2"/>
		<rect x="120.3" y="478.5" class="st0" width="120.2" height="120.2"/>
		<rect x="0.2" y="478.5" class="st2" width="120.2" height="120.2"/>
		<rect x="240.4" y="599" class="st3" width="120.2" height="120.2"/>
		<rect x="120.3" y="598.7" class="st2" width="120.2" height="120.2"/>
		<rect x="0.2" y="598.7" class="st0" width="120.2" height="120.2"/>
		<g>
			<path class="st4" d="M264.7,478.6c0-6.5-2.5-12.6-7.1-17.1c-4.6-4.6-10.7-7.1-17.1-7.1"/>
			<path class="st4" d="M258.1,478.6c0-4.7-1.8-9.1-5.1-12.4c-3.3-3.3-7.7-5.1-12.4-5.1"/>
			<path class="st4" d="M351.5,478.6c0-29.7-11.5-57.5-32.5-78.5s-48.9-32.5-78.5-32.5"/>
			<path class="st4" d="M344.8,478.6c0-27.9-10.9-54.1-30.6-73.8s-45.9-30.6-73.8-30.6"/>
			<path class="st4" d="M338.2,478.6c0-26.1-10.2-50.6-28.6-69.1c-18.4-18.4-43-28.6-69.1-28.6"/>
			<path class="st4" d="M331.5,478.6c0-24.3-9.5-47.2-26.7-64.4c-17.2-17.2-40-26.7-64.4-26.7"/>
			<path class="st4" d="M324.8,478.6c0-22.5-8.8-43.7-24.7-59.6c-15.9-15.9-37.1-24.7-59.6-24.7"/>
			<path class="st4" d="M318.1,478.6c0-20.7-8.1-40.2-22.7-54.9C280.7,409,261.2,401,240.5,401"/>
			<path class="st4" d="M311.5,478.6c0-19-7.4-36.8-20.8-50.2c-13.4-13.4-31.2-20.8-50.2-20.8"/>
			<path class="st4" d="M304.8,478.6c0-17.2-6.7-33.3-18.8-45.5c-12.1-12.1-28.3-18.8-45.5-18.8"/>
			<path class="st4" d="M298.1,478.6c0-15.4-6-29.9-16.9-40.7C270.3,427,255.8,421,240.5,421"/>
			<path class="st4" d="M291.4,478.6c0-13.6-5.3-26.4-14.9-36s-22.4-14.9-36-14.9"/>
			<path class="st4" d="M284.8,478.6c0-11.8-4.6-22.9-13-31.3s-19.5-13-31.3-13"/>
			<path class="st4" d="M278.1,478.6c0-10-3.9-19.5-11-26.6s-16.5-11-26.6-11"/>
			<path class="st4" d="M271.4,478.6c0-8.3-3.2-16-9.1-21.9c-5.8-5.8-13.6-9.1-21.9-9.1"/>
			<path class="st4" d="M358.2,478.6c0-65-52.7-117.7-117.7-117.7"/>
		</g>
		<g>
			<path class="st4" d="M0.1,496.1c4.7,0,9.1-1.8,12.4-5.1c3.3-3.3,5.1-7.7,5.1-12.4"/>
			<path class="st4" d="M0.1,589.6c29.7,0,57.5-11.5,78.5-32.5s32.5-48.9,32.5-78.5"/>
			<path class="st4" d="M0.1,576.2c26.1,0,50.6-10.2,69.1-28.6c18.4-18.4,28.6-43,28.6-69.1"/>
			<path class="st4" d="M0.1,562.9c22.5,0,43.7-8.8,59.6-24.7s24.7-37.1,24.7-59.6"/>
			<path class="st4" d="M0.1,549.5c19,0,36.8-7.4,50.2-20.8c13.4-13.4,20.8-31.2,20.8-50.2"/>
			<path class="st4" d="M0.1,536.2c15.4,0,29.9-6,40.7-16.9c10.9-10.9,16.9-25.4,16.9-40.7"/>
			<path class="st4" d="M0.1,522.8c11.8,0,22.9-4.6,31.3-13c8.4-8.4,13-19.5,13-31.3"/>
			<path class="st4" d="M0.1,509.5c8.3,0,16-3.2,21.9-9.1c5.8-5.8,9.1-13.6,9.1-21.9"/>
		</g>
		<g>
			<path class="st3" d="M358.2,478.6c0,65-52.7,117.7-117.7,117.7V478.6H358.2z"/>
		</g>
		<g>
			<path class="st3" d="M0.1,718.9c0-66.4,53.8-120.2,120.2-120.2v120.2H0.1z"/>
		</g>
		<g>
			<path class="st0" d="M120.3,598.7c66.4,0,120.2,53.8,120.2,120.2H120.3V598.7z"/>
		</g>
		<circle class="st0" cx="180.4" cy="418.5" r="14.2"/>
		<polygon class="st2" points="180.4,538.5 240.2,598.7 120.6,598.7 		"/>
		<polygon class="st2" points="180.4,538.5 240.2,478.6 120.6,478.6 		"/>
		<g>
			<path class="st2" d="M22.4,405.9h24.5v-23.8h26.7v23.8h24.5v25.2H73.6v23.8H46.9v-23.8H22.4V405.9z"/>
		</g>
		<path class="st2" d="M360.6,718.9c-33.2,0-60.1-26.9-60.1-60.1c0-33.2,26.9-60.1,60.1-60.1"/>
		<path class="st2" d="M240.5,718.9c33.2,0,60.1-26.9,60.1-60.1c0-33.2-26.9-60.1-60.1-60.1"/>
	</g>
	<g>
		<rect x="240.6" y="240.3" class="st0" width="120.2" height="120.2"/>
		<rect x="240.7" y="120.2" class="st2" width="120.2" height="120.2"/>
		<rect x="240.6" y="0" class="st3" width="120.2" height="120.2"/>
		<rect x="120.4" y="240.3" class="st2" width="120.2" height="120.2"/>
		<rect x="120.5" y="120.1" class="st0" width="120.2" height="120.2"/>
		<rect x="120.5" y="-0.1" class="st2" width="120.2" height="120.2"/>
		<rect x="0" y="240.3" class="st3" width="120.2" height="120.2"/>
		<rect x="0.3" y="120.1" class="st2" width="120.2" height="120.2"/>
		<rect x="0.3" y="0" class="st0" width="120.2" height="120.2"/>
		<g>
			<path class="st4" d="M240.6,264.6c6.5,0,12.6-2.5,17.1-7.1c4.6-4.6,7.1-10.7,7.1-17.1"/>
			<path class="st4" d="M240.6,257.9c4.7,0,9.1-1.8,12.4-5.1c3.3-3.3,5.1-7.7,5.1-12.4"/>
			<path class="st4" d="M240.6,351.4c29.7,0,57.5-11.5,78.5-32.5s32.5-48.9,32.5-78.5"/>
			<path class="st4" d="M240.6,344.7c27.9,0,54.1-10.9,73.8-30.6s30.6-45.9,30.6-73.8"/>
			<path class="st4" d="M240.6,338c26.1,0,50.6-10.2,69.1-28.6c18.4-18.4,28.6-43,28.6-69.1"/>
			<path class="st4" d="M240.6,331.3c24.3,0,47.2-9.5,64.4-26.7c17.2-17.2,26.7-40,26.7-64.4"/>
			<path class="st4" d="M240.6,324.7c22.5,0,43.7-8.8,59.6-24.7s24.7-37.1,24.7-59.6"/>
			<path class="st4" d="M240.6,318c20.7,0,40.2-8.1,54.9-22.7c14.7-14.7,22.7-34.2,22.7-54.9"/>
			<path class="st4" d="M240.6,311.3c19,0,36.8-7.4,50.2-20.8c13.4-13.4,20.8-31.2,20.8-50.2"/>
			<path class="st4" d="M240.6,304.6c17.2,0,33.3-6.7,45.5-18.8c12.1-12.1,18.8-28.3,18.8-45.5"/>
			<path class="st4" d="M240.6,298c15.4,0,29.9-6,40.7-16.9c10.9-10.9,16.9-25.4,16.9-40.7"/>
			<path class="st4" d="M240.6,291.3c13.6,0,26.4-5.3,36-14.9s14.9-22.4,14.9-36"/>
			<path class="st4" d="M240.6,284.6c11.8,0,22.9-4.6,31.3-13s13-19.5,13-31.3"/>
			<path class="st4" d="M240.6,277.9c10,0,19.5-3.9,26.6-11s11-16.5,11-26.6"/>
			<path class="st4" d="M240.6,271.3c8.3,0,16-3.2,21.9-9.1c5.8-5.8,9.1-13.6,9.1-21.9"/>
			<path class="st4" d="M240.6,358c65,0,117.7-52.7,117.7-117.7"/>
		</g>
		<g>
			<path class="st4" d="M223.1,0c0,4.7,1.8,9.1,5.1,12.4s7.7,5.1,12.4,5.1"/>
			<path class="st4" d="M129.6,0c0,29.7,11.5,57.5,32.5,78.5S211,111,240.6,111"/>
			<path class="st4" d="M142.9,0c0,26.1,10.2,50.6,28.6,69.1c18.4,18.4,43,28.6,69.1,28.6"/>
			<path class="st4" d="M156.3,0c0,22.5,8.8,43.7,24.7,59.6s37.1,24.7,59.6,24.7"/>
			<path class="st4" d="M169.6,0c0,19,7.4,36.8,20.8,50.2C203.8,63.6,221.7,71,240.6,71"/>
			<path class="st4" d="M183,0c0,15.4,6,29.9,16.9,40.7c10.9,10.9,25.4,16.9,40.7,16.9"/>
			<path class="st4" d="M196.4,0c0,11.8,4.6,22.9,13,31.3s19.5,13,31.3,13"/>
			<path class="st4" d="M209.7,0c0,8.3,3.2,16,9.1,21.9c5.8,5.8,13.6,9.1,21.9,9.1"/>
		</g>
		<g>
			<path class="st3" d="M240.6,358c-65,0-117.7-52.7-117.7-117.7h117.7V358z"/>
		</g>
		<g>
			<path class="st3" d="M0.3,0c66.4,0,120.2,53.8,120.2,120.2H0.3V0z"/>
		</g>
		<g>
			<path class="st0" d="M120.5,120.2c0,66.4-53.8,120.2-120.2,120.2V120.2H120.5z"/>
		</g>
		<circle class="st0" cx="300.7" cy="180.3" r="14.2"/>
		<polygon class="st2" points="180.7,180.3 120.5,240.1 120.5,120.4 		"/>
		<polygon class="st2" points="180.7,180.3 240.6,240.1 240.6,120.4 		"/>
		<g>
			<path class="st2" d="M313.3,22.2v24.5h23.8v26.7h-23.8v24.5h-25.2V73.5h-23.8V46.7h23.8V22.2H313.3z"/>
		</g>
		<path class="st2" d="M0.3,360.5c0-33.2,26.9-60.1,60.1-60.1s60.1,26.9,60.1,60.1"/>
		<path class="st2" d="M0.3,240.3c0,33.2,26.9,60.1,60.1,60.1s60.1-26.9,60.1-60.1"/>
	</g>
</g>
</svg>
